<svg width="134" height="40" viewBox="0 0 134 40" fill="none" xmlns="http://www.w3.org/2000/svg">
<g clip-path="url(#clip0_1_206)">
<path fill-rule="evenodd" clip-rule="evenodd" d="M83.1103 31.2821C75.418 36.97 64.2292 40.0001 54.5788 40.0001C41.059 40.0001 28.9378 35.0118 19.7071 26.7135C19.0078 26.061 19.6139 25.175 20.4995 25.6878C30.4296 31.4686 42.6907 34.9186 55.3713 34.9186C63.9028 34.9186 73.32 33.1471 81.9913 29.4639C83.2963 28.9512 84.3689 30.3498 83.1102 31.2821H83.1103Z" fill="#FF9900"/>
<path fill-rule="evenodd" clip-rule="evenodd" d="M86.3272 27.5992C85.3485 26.3404 79.8004 26.9931 77.3297 27.3194C76.5837 27.4126 76.4438 26.76 77.1431 26.2938C81.5721 23.1702 88.7982 24.1026 89.6373 25.1282C90.4765 26.1539 89.4043 33.4261 85.2543 36.8765C84.6019 37.3892 83.9956 37.1095 84.2756 36.4102C85.2084 34.0792 87.3063 28.9041 86.3272 27.5992Z" fill="#FF9900"/>
<path fill-rule="evenodd" clip-rule="evenodd" d="M77.4693 4.38298V1.35191C77.464 1.25256 77.4797 1.1532 77.5153 1.0603C77.5509 0.967401 77.6057 0.883032 77.676 0.812678C77.7464 0.742325 77.8308 0.687561 77.9237 0.651947C78.0166 0.616332 78.1159 0.600663 78.2153 0.605957H91.7351C91.9387 0.601673 92.1357 0.677427 92.2839 0.816926C92.4322 0.956426 92.5197 1.14853 92.5278 1.35191V3.91603C92.5278 4.3356 92.1549 4.89475 91.5021 5.82752L84.5092 15.8043C87.12 15.7576 89.8709 16.1305 92.2015 17.4355C92.7143 17.7152 92.854 18.1814 92.9008 18.601V21.8177C92.9008 22.284 92.4346 22.7965 91.9221 22.517C87.7729 20.3258 82.2251 20.0928 77.6564 22.5637C77.1902 22.7967 76.6777 22.3306 76.6777 21.8644V18.7878C76.6777 18.3216 76.6777 17.4828 77.1905 16.7366L85.3024 5.12823H78.262C78.0586 5.13252 77.8616 5.05686 77.7134 4.91751C77.5652 4.77816 77.4776 4.58624 77.4693 4.38298ZM28.192 23.1701H24.0895C23.9056 23.1515 23.733 23.073 23.5982 22.9466C23.4634 22.8203 23.3739 22.6531 23.3435 22.4708V1.39858C23.3516 1.19522 23.4391 1.00314 23.5873 0.863643C23.7355 0.724148 23.9325 0.648377 24.136 0.652624H27.9588C28.1479 0.655483 28.3291 0.728723 28.467 0.858034C28.605 0.987346 28.6897 1.16344 28.7048 1.35191V4.10255H28.798C29.7767 1.44525 31.6885 0.186525 34.2059 0.186525C36.77 0.186525 38.4017 1.44525 39.5207 4.10255C40.4994 1.44525 42.7841 0.186525 45.2086 0.186525C46.9336 0.186525 48.7984 0.885816 49.9639 2.51759C51.2689 4.28908 50.9896 6.85319 50.9896 9.13759V22.4709C50.9816 22.6743 50.894 22.8664 50.7458 23.0059C50.5976 23.1454 50.4006 23.2211 50.1971 23.2169H46.1407C45.7211 23.1702 45.3947 22.844 45.3947 22.4709V11.282C45.3947 10.3962 45.4879 8.15844 45.3015 7.31929C44.9753 5.92071 44.0895 5.50113 42.8773 5.50113C42.3421 5.51637 41.823 5.68779 41.384 5.99427C40.9449 6.30076 40.6051 6.72894 40.4063 7.2261C39.9868 8.2983 40.0334 10.0699 40.0334 11.282V22.4709C40.0254 22.6743 39.9379 22.8664 39.7897 23.0059C39.6415 23.1454 39.4444 23.2211 39.241 23.2169H35.1384C34.7188 23.1702 34.3925 22.844 34.3925 22.4709V11.282C34.3925 8.95092 34.7654 5.45447 31.875 5.45447C28.938 5.45447 29.0312 8.81106 29.0312 11.282V22.4709C29.0019 22.6703 28.9001 22.8519 28.7452 22.9809C28.5904 23.11 28.3934 23.1773 28.192 23.1702V23.1701ZM104.183 0.186525C110.29 0.186525 113.6 5.40794 113.6 12.0746C113.6 18.5082 109.964 23.6363 104.183 23.6363C98.2153 23.6363 94.9519 18.4149 94.9519 11.8881C94.9052 5.31461 98.2153 0.185957 104.183 0.185957V0.186525ZM104.183 4.52213C101.152 4.52213 100.966 8.67135 100.966 11.2355C100.966 13.7996 100.919 19.3007 104.136 19.3007C107.306 19.3007 107.493 14.8718 107.493 12.1678C107.493 10.3962 107.4 8.25177 106.887 6.57333C106.42 5.08142 105.488 4.52213 104.183 4.52213ZM121.479 23.1701H117.376C116.957 23.1234 116.63 22.7972 116.63 22.4241V1.30496C116.656 1.11245 116.75 0.935691 116.896 0.807204C117.041 0.678716 117.229 0.607149 117.423 0.605674H121.246C121.419 0.611786 121.586 0.674274 121.72 0.783656C121.855 0.893038 121.95 1.04334 121.992 1.21177V4.42851H122.085C123.25 1.53801 124.835 0.186099 127.679 0.186099C129.497 0.186099 131.316 0.838582 132.481 2.65702C133.553 4.33532 133.553 7.17915 133.553 9.2305V22.5172C133.525 22.7046 133.429 22.8751 133.282 22.9955C133.136 23.116 132.95 23.1781 132.761 23.1696H128.658C128.285 23.123 127.959 22.8434 127.912 22.5172V11.0489C127.912 8.71787 128.192 5.36099 125.348 5.36099C124.369 5.36099 123.436 6.01347 122.97 7.03929C122.411 8.34426 122.318 9.6034 122.318 11.0487V22.4245C122.292 22.6293 122.192 22.8177 122.038 22.9549C121.884 23.092 121.685 23.1686 121.479 23.1705L121.479 23.1701ZM66.7004 13.1003C66.7004 14.6854 66.7471 16.0373 65.9544 17.4833C65.3019 18.6488 64.2761 19.3481 63.1106 19.3481C61.5255 19.3481 60.5932 18.136 60.5932 16.3644C60.5932 12.8679 63.7167 12.2152 66.7004 12.2152V13.1003ZM70.8496 23.1235C70.7167 23.2395 70.5508 23.3109 70.3752 23.3276C70.1997 23.3443 70.0233 23.3056 69.8709 23.2167C68.519 22.0979 68.2397 21.5384 67.4933 20.4661C65.2556 22.7498 63.6238 23.4498 60.7334 23.4498C57.2835 23.4498 54.5795 21.3052 54.5795 17.0628C54.5795 13.7062 56.3977 11.4685 58.9625 10.3495C61.2002 9.37078 64.3242 9.18397 66.7014 8.90426V8.39149C66.7014 7.41277 66.7946 6.24695 66.1886 5.4078C65.6758 4.66184 64.7434 4.3356 63.9049 4.3356C62.3198 4.3356 60.9212 5.12809 60.5949 6.80652C60.5017 7.17943 60.2686 7.55248 59.8956 7.55248L55.9329 7.13291C55.6066 7.03972 55.2336 6.80667 55.3268 6.29376C56.2591 1.44525 60.5949 0 64.5109 0C66.5156 0 69.1262 0.512766 70.7113 2.05121C72.716 3.91603 72.5295 6.43418 72.5295 9.13745V15.5244C72.5295 17.4359 73.322 18.275 74.0679 19.3472C74.3476 19.7201 74.3941 20.1864 74.0679 20.4194C73.1821 21.1187 71.6903 22.4241 70.8512 23.1234L70.8496 23.1235ZM12.854 13.1003C12.854 14.6854 12.9007 16.0373 12.1081 17.4833C11.4556 18.6488 10.4298 19.3481 9.26422 19.3481C7.67912 19.3481 6.74678 18.136 6.74678 16.3644C6.74678 12.8679 9.87032 12.2152 12.854 12.2152V13.1003ZM16.9566 23.1235C16.8237 23.2395 16.6578 23.3109 16.4822 23.3276C16.3066 23.3443 16.1302 23.3056 15.9778 23.2167C14.6259 22.0979 14.3466 21.5384 13.6003 20.4661C11.3625 22.7498 9.73075 23.4498 6.84039 23.4498C3.39046 23.4498 0.686493 21.3052 0.686493 17.0628C0.686493 13.7062 2.50465 11.4685 5.06947 10.3495C7.3072 9.37078 10.4312 9.18397 12.8083 8.90426V8.39149C12.8083 7.41277 12.9015 6.24695 12.2956 5.4078C11.7828 4.66184 10.8503 4.3356 10.0119 4.3356C8.42678 4.3356 7.0282 5.12809 6.70181 6.80652C6.60862 7.17943 6.37557 7.55248 6.00252 7.55248L2.03983 7.13291C1.71359 7.03972 1.34054 6.80667 1.43373 6.29376C2.36607 1.44525 6.70181 0 10.6178 0C12.6225 0 15.2332 0.512766 16.8183 2.05121C18.8229 3.91603 18.6364 6.43418 18.6364 9.13745V15.5244C18.6364 17.4359 19.4289 18.275 20.1749 19.3472C20.4546 19.7201 20.5011 20.1864 20.1749 20.4194C19.289 21.1187 17.7973 22.4241 16.9581 23.1234L16.9566 23.1235Z" fill="black"/>
</g>
<defs>
<clipPath id="clip0_1_206">
<rect width="132.867" height="40" fill="white" transform="translate(0.686096)"/>
</clipPath>
</defs>
</svg>
