<svg width="91" height="81" viewBox="0 0 91 81" fill="none" xmlns="http://www.w3.org/2000/svg">
<circle cx="40" cy="40.9412" r="40" fill="#E8E8E8"/>
<circle cx="51" cy="40.9412" r="40" fill="#F5F3F5"/>
<path d="M24.7502 42.82C24.7502 43.8587 25.5865 44.695 26.6252 44.695H54.7502V54.085C54.7502 55.3225 55.8786 56.095 56.9324 55.915C57.3054 55.8479 57.6489 55.6672 57.9152 55.3975L72.3787 40.9375C72.8573 40.4531 73.1258 39.7997 73.1258 39.1187C73.1258 38.4378 72.8573 37.7843 72.3787 37.3L57.9037 22.7312C56.7712 21.5912 54.7539 22.3937 54.7539 23.995V33.445H26.6289C25.5864 33.445 24.7539 34.2812 24.7539 35.32L24.7502 42.82Z" fill="url(#paint0_linear_1_358)"/>
<defs>
<linearGradient id="paint0_linear_1_358" x1="48.938" y1="22.196" x2="48.938" y2="55.9409" gradientUnits="userSpaceOnUse">
<stop stop-color="#38EF7D"/>
<stop offset="1" stop-color="#11998E"/>
</linearGradient>
</defs>
</svg>
