<svg width="25" height="29" viewBox="0 0 25 29" fill="none" xmlns="http://www.w3.org/2000/svg">
<path d="M20 7.76514H17V6.76514C17 5.70427 16.5786 4.68686 15.8284 3.93671C15.0783 3.18656 14.0609 2.76514 13 2.76514C11.9391 2.76514 10.9217 3.18656 10.1716 3.93671C9.42143 4.68686 9 5.70427 9 6.76514V7.76514H6C5.73478 7.76514 5.48043 7.87049 5.29289 8.05803C5.10536 8.24557 5 8.49992 5 8.76514V19.7651C5 20.5608 5.31607 21.3238 5.87868 21.8865C6.44129 22.4491 7.20435 22.7651 8 22.7651H18C18.7956 22.7651 19.5587 22.4491 20.1213 21.8865C20.6839 21.3238 21 20.5608 21 19.7651V8.76514C21 8.49992 20.8946 8.24557 20.7071 8.05803C20.5196 7.87049 20.2652 7.76514 20 7.76514ZM11 6.76514C11 6.2347 11.2107 5.726 11.5858 5.35092C11.9609 4.97585 12.4696 4.76514 13 4.76514C13.5304 4.76514 14.0391 4.97585 14.4142 5.35092C14.7893 5.726 15 6.2347 15 6.76514V7.76514H11V6.76514ZM19 19.7651C19 20.0304 18.8946 20.2847 18.7071 20.4722C18.5196 20.6598 18.2652 20.7651 18 20.7651H8C7.73478 20.7651 7.48043 20.6598 7.29289 20.4722C7.10536 20.2847 7 20.0304 7 19.7651V9.76514H9V10.7651C9 11.0304 9.10536 11.2847 9.29289 11.4722C9.48043 11.6598 9.73478 11.7651 10 11.7651C10.2652 11.7651 10.5196 11.6598 10.7071 11.4722C10.8946 11.2847 11 11.0304 11 10.7651V9.76514H15V10.7651C15 11.0304 15.1054 11.2847 15.2929 11.4722C15.4804 11.6598 15.7348 11.7651 16 11.7651C16.2652 11.7651 16.5196 11.6598 16.7071 11.4722C16.8946 11.2847 17 11.0304 17 10.7651V9.76514H19V19.7651Z" fill="#0D141C"/>
<circle cx="8" cy="20.7339" r="8" fill="#00C397"/>
<path d="M4.66133 20.7979C4.66133 19.5748 4.86044 18.6219 5.25867 17.9392C5.65689 17.2494 6.35378 16.9046 7.34933 16.9046C8.33778 16.9046 9.03111 17.2494 9.42933 17.9392C9.82756 18.6219 10.0267 19.5748 10.0267 20.7979C10.0267 22.0423 9.82756 23.0094 9.42933 23.6992C9.03111 24.389 8.33778 24.7339 7.34933 24.7339C6.35378 24.7339 5.65689 24.389 5.25867 23.6992C4.86044 23.0094 4.66133 22.0423 4.66133 20.7979ZM9.06667 20.7979C9.06667 20.1792 9.024 19.6566 8.93867 19.2299C8.86044 18.7961 8.69333 18.4477 8.43733 18.1846C8.18844 17.9214 7.82578 17.7899 7.34933 17.7899C6.86578 17.7899 6.496 17.9214 6.24 18.1846C5.99111 18.4477 5.824 18.7961 5.73867 19.2299C5.66044 19.6566 5.62133 20.1792 5.62133 20.7979C5.62133 21.4379 5.66044 21.9748 5.73867 22.4086C5.824 22.8423 5.99111 23.1908 6.24 23.4539C6.496 23.717 6.86578 23.8486 7.34933 23.8486C7.82578 23.8486 8.18844 23.717 8.43733 23.4539C8.69333 23.1908 8.86044 22.8423 8.93867 22.4086C9.024 21.9748 9.06667 21.4379 9.06667 20.7979Z" fill="white"/>
</svg>
