<svg width="54" height="55" viewBox="0 0 54 55" fill="none" xmlns="http://www.w3.org/2000/svg">
<circle cx="27" cy="27.9412" r="18" fill="url(#paint0_linear_51_93)"/>
<circle cx="27" cy="27.9412" r="24.5" stroke="url(#paint1_linear_51_93)" stroke-opacity="0.75" stroke-width="5"/>
<path d="M34.41 28.9412C34.19 28.9412 33.96 28.8712 33.74 28.8212C33.2948 28.7216 32.8571 28.5913 32.43 28.4312C31.9661 28.2624 31.4561 28.2712 30.9983 28.4558C30.5405 28.6404 30.1671 28.9878 29.95 29.4312L29.73 29.8912C28.7588 29.3404 27.8616 28.6683 27.06 27.8912C26.2828 27.0895 25.6108 26.1923 25.06 25.2212L25.52 25.0112C25.9634 24.7941 26.3108 24.4207 26.4954 23.9629C26.68 23.505 26.6888 22.9951 26.52 22.5312C26.3612 22.1002 26.2309 21.6592 26.13 21.2112C26.08 20.9912 26.04 20.7612 26.01 20.5412C25.8886 19.8368 25.5196 19.1989 24.9696 18.7424C24.4196 18.2859 23.7247 18.0408 23.01 18.0512H20C19.5772 18.0506 19.1591 18.1394 18.7731 18.3117C18.3871 18.4841 18.0418 18.7361 17.76 19.0512C17.4723 19.3748 17.2581 19.7569 17.1321 20.1712C17.0061 20.5855 16.9712 21.0221 17.03 21.4512C17.5736 25.6133 19.4752 29.4798 22.44 32.4512C25.4113 35.416 29.2779 37.3176 33.44 37.8612C33.5698 37.8711 33.7002 37.8711 33.83 37.8612C34.5674 37.8622 35.2794 37.5917 35.83 37.1012C36.1451 36.8193 36.3971 36.4741 36.5694 36.088C36.7417 35.702 36.8305 35.2839 36.83 34.8612V31.8612C36.8246 31.1702 36.5808 30.5023 36.1399 29.9703C35.699 29.4382 35.0879 29.0747 34.41 28.9412ZM34.9 34.9412C34.8997 35.0807 34.8701 35.2186 34.8133 35.3461C34.7565 35.4735 34.6736 35.5877 34.57 35.6812C34.4604 35.781 34.33 35.8552 34.1881 35.8985C34.0463 35.9417 33.8967 35.9529 33.75 35.9312C30.0183 35.4438 26.5502 33.7432 23.88 31.0912C21.2075 28.4186 19.492 24.9385 19 21.1912C18.9783 21.0445 18.9894 20.8948 19.0327 20.753C19.0759 20.6112 19.1501 20.4808 19.25 20.3712C19.3446 20.2663 19.4604 20.1827 19.5896 20.1258C19.7189 20.0689 19.8588 20.0401 20 20.0412H23C23.2312 20.0355 23.4571 20.1101 23.6395 20.2524C23.8218 20.3946 23.9492 20.5956 24 20.8212C24 21.0912 24.09 21.3712 24.15 21.6412C24.2656 22.165 24.4193 22.6797 24.61 23.1812L23.21 23.8412C22.9694 23.9516 22.7823 24.153 22.69 24.4012C22.59 24.6446 22.59 24.9177 22.69 25.1612C24.1292 28.2439 26.6072 30.722 29.69 32.1612C29.9334 32.2612 30.2065 32.2612 30.45 32.1612C30.6981 32.0688 30.8995 31.8818 31.01 31.6412L31.64 30.2412C32.1559 30.4293 32.6837 30.583 33.22 30.7012C33.48 30.7612 33.76 30.8112 34.03 30.8512C34.2556 30.902 34.4566 31.0294 34.5988 31.2117C34.741 31.394 34.8156 31.62 34.81 31.8512L34.9 34.9412ZM29 17.9412C28.77 17.9412 28.53 17.9412 28.3 17.9412C28.0348 17.9637 27.7894 18.0907 27.6178 18.2942C27.4462 18.4976 27.3624 18.7609 27.385 19.0262C27.4075 19.2914 27.5345 19.5368 27.738 19.7084C27.9415 19.88 28.2048 19.9637 28.47 19.9412H29C30.5913 19.9412 32.1174 20.5733 33.2426 21.6985C34.3678 22.8237 35 24.3499 35 25.9412C35 26.1212 35 26.2912 35 26.4712C34.9778 26.735 35.0612 26.9968 35.2317 27.1993C35.4023 27.4017 35.6462 27.5283 35.91 27.5512H35.99C36.2403 27.5522 36.4819 27.4593 36.6671 27.2908C36.8522 27.1223 36.9675 26.8905 36.99 26.6412C36.99 26.4112 36.99 26.1712 36.99 25.9412C36.99 23.8212 36.1485 21.7878 34.6504 20.2878C33.1523 18.7878 31.12 17.9438 29 17.9412ZM31 25.9412C31 26.2064 31.1053 26.4607 31.2929 26.6483C31.4804 26.8358 31.7348 26.9412 32 26.9412C32.2652 26.9412 32.5196 26.8358 32.7071 26.6483C32.8946 26.4607 33 26.2064 33 25.9412C33 24.8803 32.5786 23.8629 31.8284 23.1127C31.0783 22.3626 30.0609 21.9412 29 21.9412C28.7348 21.9412 28.4804 22.0465 28.2929 22.2341C28.1053 22.4216 28 22.6759 28 22.9412C28 23.2064 28.1053 23.4607 28.2929 23.6483C28.4804 23.8358 28.7348 23.9412 29 23.9412C29.5304 23.9412 30.0391 24.1519 30.4142 24.5269C30.7893 24.902 31 25.4107 31 25.9412Z" fill="white"/>
<defs>
<linearGradient id="paint0_linear_51_93" x1="45" y1="27.9412" x2="9" y2="27.9412" gradientUnits="userSpaceOnUse">
<stop stop-color="#38EF7D"/>
<stop offset="1" stop-color="#11998E"/>
</linearGradient>
<linearGradient id="paint1_linear_51_93" x1="54" y1="27.9412" x2="0" y2="27.9412" gradientUnits="userSpaceOnUse">
<stop stop-color="#BFF4BE"/>
<stop offset="1" stop-color="#D6F6D5"/>
</linearGradient>
</defs>
</svg>
