<svg width="117" height="40" viewBox="0 0 117 40" fill="none" xmlns="http://www.w3.org/2000/svg">
<g clip-path="url(#clip0_1_198)">
<path d="M18.0439 19.4368H23.062V26.4848C21.4963 26.9879 19.5193 27.2638 17.4643 27.2638C9.13568 27.2638 4.24066 20.1317 4.24066 13.1662C4.24066 6.33463 8.66829 1.54267 14.8454 1.54267C18.7542 1.54267 21.0286 2.86687 23.0634 4.71144V7.01092L26.8787 3.1956C24.4655 1.5629 20.9711 0.0112305 15.9764 0.0112305C5.01184 0.0112305 6.10352e-05 7.85547 6.10352e-05 14.302C6.10352e-05 23.4779 6.68351 29.0056 15.0824 29.0056C19.1548 29.0056 22.7706 28.3839 26.9474 27.2217V19.94C26.9474 19.5677 27.111 19.3122 27.3556 19.0879L28.6736 17.7699H19.7234L18.0439 19.4368Z" fill="url(#paint0_linear_1_198)"/>
<path d="M40.5231 9.85889C34.212 9.85889 30.3016 14.4705 30.3016 19.3654C30.3016 23.5905 33.4519 28.6068 39.8345 28.6068C45.9742 28.6068 49.7412 23.9862 49.7412 19.0056C49.7412 14.3661 46.0599 9.8606 40.5231 9.8606V9.85889ZM39.476 11.2034C43.9255 11.2034 45.9071 17.0004 45.9071 21.1351C45.9071 27.2842 41.2941 27.4057 40.7426 27.4057C38.6316 27.4057 37.1562 26.1299 36.0518 24.4565C35.0797 22.9143 34.1294 20.0492 34.1294 17.2497C34.1294 14.461 35.0422 13.0994 36.4787 12.0976C37.6534 11.3467 38.7533 11.2034 39.4745 11.2034H39.476Z" fill="url(#paint1_linear_1_198)"/>
<path d="M81.7783 9.85742C76.2662 9.85742 73.2844 13.3472 73.2844 17.2435C73.2844 20.2098 75.4094 23.5562 79.7933 23.5562H80.9024C80.9024 23.5562 80.6004 24.29 80.5988 24.9988C80.5988 26.0443 80.9743 26.6315 81.7717 27.5351C74.2283 27.9946 71.1967 31.0373 71.1967 34.3073C71.1967 37.1709 73.9387 39.9892 79.7013 39.9892C86.5234 39.9892 90.0567 36.2017 90.0567 32.4847C90.0567 29.8643 88.7512 28.4279 85.4453 25.9508C84.4732 25.1952 84.2846 24.714 84.2846 24.1485C84.2846 23.3384 84.7692 22.8023 84.9468 22.5999C85.2599 22.2696 85.8021 21.8926 86.0046 21.7119C87.1154 20.7709 88.6842 19.3783 88.6842 16.5988C88.6842 14.6919 87.8911 13.0515 86.084 11.5154H88.2901L89.9477 9.85776H81.7783V9.85742ZM80.2578 11.0975C81.258 11.0975 82.0929 11.4512 82.9746 12.185C83.9529 13.0668 85.5157 15.4363 85.5157 18.3683C85.5157 21.5324 83.0573 22.3986 81.7269 22.3986C81.0757 22.3986 80.2954 22.2164 79.6346 21.7646C78.1671 20.8128 76.7103 18.2795 76.7103 15.2649C76.7103 12.5448 78.3305 11.0975 80.2578 11.0975ZM82.4404 28.7362C82.8609 28.7362 83.1633 28.7707 83.1633 28.7707C83.1633 28.7707 84.1557 29.4795 84.8489 30.009C86.4629 31.285 87.4692 32.2602 87.4692 33.9975C87.4692 36.3857 85.2538 38.2583 81.6659 38.2583C77.7277 38.2583 74.7177 36.4247 74.7177 33.4305C74.7177 30.9502 76.7804 28.8155 82.4404 28.7362Z" fill="url(#paint2_linear_1_198)"/>
<path d="M91.1412 28.0601H98.708L99.8607 26.9074L97.6905 26.6364C97.1063 26.5647 96.759 26.0599 96.759 25.5707V2.71461C96.759 2.26437 96.9678 2.03379 97.1203 1.88719L98.4852 0.522461H92.0323L90.3529 2.2019H92.8611V25.8775C92.8611 26.214 92.7552 26.443 92.5277 26.6782L91.1412 28.0601Z" fill="url(#paint3_linear_1_198)"/>
<path d="M108.961 9.85889C104.736 9.85889 100.247 13.0791 100.247 18.8605C100.247 23.6354 103.467 28.6068 109.484 28.6068C110.984 28.6068 112.22 28.4138 113.377 27.8826C114.619 27.3108 115.814 26.3823 116.686 25.2154C115.04 26.0458 113.697 26.591 111.913 26.591C108.523 26.591 105.254 24.1451 104.111 19.649L116.086 14.8085C115.395 12.3424 113.444 9.85889 108.962 9.85889H108.961ZM108.178 11.1816C110.445 11.1816 112.084 13.0464 112.084 14.5062C112.084 14.9782 111.788 15.2275 111.202 15.4581L103.841 18.4352C103.841 18.4352 103.642 17.5083 103.642 16.5065C103.642 12.3048 106.68 11.1816 108.178 11.1816Z" fill="url(#paint4_linear_1_198)"/>
<path d="M61.9381 9.85889C55.627 9.85889 51.7167 14.4705 51.7167 19.3654C51.7167 23.5905 54.8669 28.6068 61.2495 28.6068C67.3893 28.6068 71.1563 23.9862 71.1563 19.0056C71.1563 14.3661 67.4749 9.8606 61.9381 9.8606V9.85889ZM60.8911 11.2034C65.3406 11.2034 67.3221 17.0004 67.3221 21.1351C67.3221 27.2842 62.7092 27.4057 62.1577 27.4057C60.0467 27.4057 58.5714 26.1299 57.467 24.4565C56.4948 22.9143 55.5444 20.0492 55.5444 17.2497C55.5444 14.461 56.4572 13.0994 57.8938 12.0976C59.0685 11.3467 60.1683 11.2034 60.8895 11.2034H60.8911Z" fill="url(#paint5_linear_1_198)"/>
</g>
<defs>
<linearGradient id="paint0_linear_1_198" x1="14.2655" y1="-0.0708445" x2="14.2655" y2="29.004" gradientUnits="userSpaceOnUse">
<stop stop-color="#196EEF"/>
<stop offset="0.5" stop-color="#186DEE"/>
<stop offset="1" stop-color="#1065E7"/>
</linearGradient>
<linearGradient id="paint1_linear_1_198" x1="39.9507" y1="9.81448" x2="39.9507" y2="28.6147" gradientUnits="userSpaceOnUse">
<stop stop-color="#DE5744"/>
<stop offset="0.5" stop-color="#DB4632"/>
<stop offset="1" stop-color="#D13D29"/>
</linearGradient>
<linearGradient id="paint2_linear_1_198" x1="80.5574" y1="9.81457" x2="80.5574" y2="40.0006" gradientUnits="userSpaceOnUse">
<stop stop-color="#1A6FEF"/>
<stop offset="0.25" stop-color="#1E72EF"/>
<stop offset="0.5" stop-color="#166BEC"/>
<stop offset="0.75" stop-color="#1267E9"/>
<stop offset="1" stop-color="#1063E5" stop-opacity="0.87"/>
</linearGradient>
<linearGradient id="paint3_linear_1_198" x1="95.0378" y1="0.457641" x2="95.0378" y2="28.0866" gradientUnits="userSpaceOnUse">
<stop stop-color="#0AA561"/>
<stop offset="0.5" stop-color="#009B58"/>
<stop offset="1" stop-color="#00914B"/>
</linearGradient>
<linearGradient id="paint4_linear_1_198" x1="108.398" y1="9.81448" x2="108.398" y2="28.563" gradientUnits="userSpaceOnUse">
<stop stop-color="#DE5644"/>
<stop offset="0.5" stop-color="#DA4531"/>
<stop offset="1" stop-color="#CE3A28"/>
</linearGradient>
<linearGradient id="paint5_linear_1_198" x1="61.3663" y1="9.85531" x2="61.3663" y2="28.5775" gradientUnits="userSpaceOnUse">
<stop stop-color="#FFC01A"/>
<stop offset="0.5" stop-color="#FFBA03"/>
<stop offset="1" stop-color="#FFB300"/>
</linearGradient>
<clipPath id="clip0_1_198">
<rect width="116.686" height="40" fill="white"/>
</clipPath>
</defs>
</svg>
