<svg width="152" height="40" viewBox="0 0 152 40" fill="none" xmlns="http://www.w3.org/2000/svg">
<g clip-path="url(#clip0_1_219)">
<path d="M112.207 2.86539C112.207 1.28371 113.522 0 115.144 0H149.017C150.64 0 151.955 1.28371 151.955 2.86539V37.1351C151.955 38.7173 150.64 40 149.017 40H115.144C113.522 40 112.207 38.7173 112.207 37.1357V2.86539Z" fill="#006699"/>
<path d="M0.939697 33.5058H17.5277V28.0593H6.94379V7.2824H0.939697V33.5058ZM25.9261 33.5058V15.4437H19.9225V33.5058H25.9261ZM22.9248 12.978C25.018 12.978 26.3211 11.591 26.3211 9.85664C26.2823 8.08452 25.018 6.73682 22.9647 6.73682C20.9108 6.73682 19.5679 8.08505 19.5679 9.85664C19.5679 11.591 20.871 12.978 22.8855 12.978H22.9248ZM28.7133 33.5058H34.7168V23.4187C34.7168 22.8789 34.7557 22.3391 34.9146 21.9545C35.3479 20.8759 36.3358 19.7585 37.9946 19.7585C40.1675 19.7585 41.0368 21.4152 41.0368 23.8421V33.5053H47.0393V23.149C47.0393 17.6008 44.0774 15.0193 40.1271 15.0193C36.8887 15.0193 35.4665 16.8297 34.6765 18.063H34.7168V15.4437H28.7133C28.7925 17.1387 28.7133 33.5058 28.7133 33.5058ZM55.509 7.2824H49.5054V33.5058H55.509V27.6496L57.0094 25.7605L61.7098 33.5058H69.0952L61.1968 22.2934L68.1079 14.6657H60.8809C60.8809 14.6657 55.9439 21.4897 55.509 22.2997V7.2824Z" fill="black"/>
<path d="M85.1496 25.9718C85.2288 25.508 85.3474 24.6183 85.3474 23.6121C85.3474 18.9431 82.9772 14.2028 76.7371 14.2028C70.062 14.2028 66.981 19.4819 66.981 24.27C66.981 30.1917 70.7335 33.8896 77.2895 33.8896C79.8968 33.8896 82.3052 33.5056 84.2809 32.6961L83.4908 28.7312C81.8709 29.2684 80.2121 29.5375 78.1588 29.5375C75.3547 29.5375 72.9064 28.386 72.7086 25.9329L85.1496 25.9707V25.9718ZM72.6693 21.9103C72.8272 20.369 73.8549 18.0948 76.4218 18.0948C79.1466 18.0948 79.7793 20.5227 79.7793 21.9103H72.6693ZM100.166 7.28275V16.3605H100.087C99.2174 15.0899 97.4007 14.2421 94.9928 14.2421C90.371 14.2421 86.3032 17.9406 86.342 24.2589C86.342 30.1156 90.0159 33.93 94.5967 33.93C97.0854 33.93 99.4545 32.8504 100.64 30.7698H100.758L100.996 33.5061H106.327C106.249 32.2345 106.169 30.0385 106.169 27.8808V7.28223H100.165L100.166 7.28275ZM100.166 25.1455C100.166 25.6072 100.127 26.0704 100.047 26.4544C99.6927 28.1121 98.2705 29.2668 96.5325 29.2668C94.0448 29.2668 92.4248 27.2639 92.4248 24.1047C92.4248 21.1386 93.8082 18.7495 96.5724 18.7495C98.4284 18.7495 99.7315 20.0207 100.087 21.5997C100.166 21.9475 100.166 22.3331 100.166 22.6794V25.1455Z" fill="black"/>
<path d="M124.256 33.4838V15.4217H118.252V33.4838H124.256ZM121.255 12.9561C123.348 12.9561 124.651 11.569 124.651 9.83571C124.612 8.06308 123.348 6.71484 121.295 6.71484C119.24 6.71484 117.898 8.06308 117.898 9.83571C117.898 11.569 119.201 12.9561 121.216 12.9561H121.254H121.255ZM127.579 33.4838H133.582V23.3983C133.582 22.859 133.621 22.3187 133.779 21.9336C134.213 20.8545 135.201 19.7376 136.86 19.7376C139.032 19.7376 139.901 21.3938 139.901 23.8222V33.4838H145.904V23.1276C145.904 17.5799 142.943 14.9983 138.993 14.9983C135.754 14.9983 134.332 16.8082 133.542 18.041H133.582V15.4222H127.579C127.657 17.1167 127.579 33.4838 127.579 33.4838Z" fill="white"/>
</g>
<defs>
<clipPath id="clip0_1_219">
<rect width="151.057" height="40" fill="white" transform="translate(0.919067)"/>
</clipPath>
</defs>
</svg>
