<svg width="1617" height="102" viewBox="0 0 1617 102" fill="none" xmlns="http://www.w3.org/2000/svg">
<path d="M26.9659 82H5.30966V20.9091H27.1449C33.2898 20.9091 38.5795 22.1321 43.0142 24.5781C47.4489 27.0043 50.8594 30.4943 53.2457 35.0483C55.652 39.6023 56.8551 45.0511 56.8551 51.3949C56.8551 57.7585 55.652 63.2273 53.2457 67.8011C50.8594 72.375 47.429 75.8849 42.9545 78.331C38.5 80.777 33.1705 82 26.9659 82ZM18.2259 70.9332H26.429C30.2472 70.9332 33.4588 70.2571 36.0639 68.9048C38.6889 67.5327 40.6577 65.4148 41.9702 62.5511C43.3026 59.6676 43.9688 55.9489 43.9688 51.3949C43.9688 46.8807 43.3026 43.1918 41.9702 40.3281C40.6577 37.4645 38.6989 35.3565 36.0938 34.0043C33.4886 32.652 30.277 31.9759 26.4588 31.9759H18.2259V70.9332ZM79.3391 20.9091V82H66.4229V20.9091H79.3391ZM130.474 40.6562C130.057 39.2045 129.47 37.9219 128.714 36.8082C127.959 35.6747 127.034 34.7202 125.94 33.9446C124.866 33.1491 123.634 32.5426 122.241 32.125C120.869 31.7074 119.348 31.4986 117.678 31.4986C114.555 31.4986 111.811 32.2741 109.445 33.8253C107.098 35.3764 105.268 37.6335 103.956 40.5966C102.643 43.5398 101.987 47.1392 101.987 51.3949C101.987 55.6506 102.634 59.2699 103.926 62.2528C105.219 65.2358 107.048 67.5128 109.415 69.0838C111.781 70.6349 114.575 71.4105 117.797 71.4105C120.72 71.4105 123.216 70.8935 125.284 69.8594C127.372 68.8054 128.963 67.3239 130.057 65.4148C131.17 63.5057 131.727 61.2486 131.727 58.6435L134.352 59.0312H118.602V49.3068H144.166V57.0028C144.166 62.3722 143.033 66.9858 140.766 70.8438C138.499 74.6818 135.376 77.6449 131.399 79.733C127.422 81.8011 122.868 82.8352 117.737 82.8352C112.01 82.8352 106.979 81.5724 102.643 79.0469C98.3082 76.5014 94.9276 72.892 92.5014 68.2188C90.0952 63.5256 88.892 57.9574 88.892 51.5142C88.892 46.5625 89.608 42.1477 91.0398 38.2699C92.4915 34.3722 94.5199 31.071 97.125 28.3665C99.7301 25.6619 102.763 23.6037 106.223 22.1918C109.683 20.7798 113.432 20.0739 117.469 20.0739C120.929 20.0739 124.151 20.581 127.134 21.5952C130.116 22.5895 132.761 24.0014 135.068 25.831C137.395 27.6605 139.294 29.8381 140.766 32.3636C142.237 34.8693 143.182 37.6335 143.599 40.6562H130.474ZM166.784 20.9091V82H153.868V20.9091H166.784ZM175.085 31.5582V20.9091H225.258V31.5582H206.555V82H193.788V31.5582H175.085ZM236.586 82H222.745L243.834 20.9091H260.479L281.539 82H267.698L252.395 34.8693H251.918L236.586 82ZM235.721 57.9872H268.414V68.0696H235.721V57.9872ZM288.892 82V20.9091H301.808V71.3509H327.998V82H288.892Z" fill="white"/>
<rect x="362.888" y="51" width="48.9791" height="48.9791" transform="rotate(-45 362.888 51)" stroke="white" stroke-width="1.25588"/>
<rect x="433.845" y="51" width="48.9791" height="48.9791" transform="rotate(-45 433.845 51)" stroke="white" stroke-width="1.25588"/>
<rect x="397.165" y="51" width="50.235" height="50.235" transform="rotate(-45 397.165 51)" fill="white"/>
<path d="M563.77 20.9091H576.537V63.5057C576.537 67.4432 575.652 70.8636 573.882 73.767C572.132 76.6705 569.696 78.9077 566.574 80.4787C563.452 82.0497 559.822 82.8352 555.686 82.8352C552.007 82.8352 548.666 82.1889 545.663 80.8963C542.68 79.5838 540.314 77.5952 538.564 74.9304C536.814 72.2457 535.949 68.875 535.969 64.8182H548.825C548.865 66.429 549.193 67.8111 549.81 68.9645C550.446 70.098 551.311 70.973 552.405 71.5895C553.518 72.1861 554.831 72.4844 556.342 72.4844C557.933 72.4844 559.276 72.1463 560.369 71.4702C561.483 70.7741 562.328 69.7599 562.905 68.4276C563.482 67.0952 563.77 65.4545 563.77 63.5057V20.9091ZM583.636 20.9091H598.104L612.034 47.2188H612.631L626.561 20.9091H641.028L618.746 60.4034V82H605.919V60.4034L583.636 20.9091ZM648.083 82V20.9091H660.999V46.1151H687.219V20.9091H700.106V82H687.219V56.7642H660.999V82H648.083ZM708.428 31.5582V20.9091H758.602V31.5582H739.898V82H727.131V31.5582H708.428ZM804.599 20.9091H817.515V60.5824C817.515 65.0369 816.451 68.9347 814.323 72.2756C812.215 75.6165 809.262 78.2216 805.464 80.0909C801.665 81.9403 797.241 82.8651 792.19 82.8651C787.119 82.8651 782.684 81.9403 778.886 80.0909C775.087 78.2216 772.134 75.6165 770.026 72.2756C767.918 68.9347 766.864 65.0369 766.864 60.5824V20.9091H779.781V59.4787C779.781 61.8054 780.288 63.8736 781.302 65.6832C782.336 67.4929 783.788 68.9148 785.657 69.9489C787.526 70.983 789.704 71.5 792.19 71.5C794.695 71.5 796.873 70.983 798.722 69.9489C800.592 68.9148 802.033 67.4929 803.048 65.6832C804.082 63.8736 804.599 61.8054 804.599 59.4787V20.9091Z" fill="white"/>
<rect x="853.888" y="51" width="48.9791" height="48.9791" transform="rotate(-45 853.888 51)" stroke="white" stroke-width="1.25588"/>
<rect x="924.845" y="51" width="48.9791" height="48.9791" transform="rotate(-45 924.845 51)" stroke="white" stroke-width="1.25588"/>
<rect x="888.165" y="51" width="50.235" height="50.235" transform="rotate(-45 888.165 51)" fill="white"/>
<path d="M1084.21 42.2969H1071.15C1070.91 40.6065 1070.42 39.1051 1069.68 37.7926C1068.95 36.4602 1068 35.3267 1066.85 34.392C1065.7 33.4574 1064.37 32.7415 1062.85 32.2443C1061.36 31.7472 1059.74 31.4986 1057.99 31.4986C1054.83 31.4986 1052.08 32.2841 1049.73 33.8551C1047.38 35.4062 1045.56 37.6733 1044.27 40.6562C1042.98 43.6193 1042.33 47.2187 1042.33 51.4545C1042.33 55.8097 1042.98 59.4687 1044.27 62.4318C1045.58 65.3949 1047.41 67.6321 1049.76 69.1435C1052.11 70.6548 1054.82 71.4105 1057.9 71.4105C1059.63 71.4105 1061.23 71.1818 1062.7 70.7244C1064.2 70.267 1065.52 69.6009 1066.67 68.7259C1067.83 67.831 1068.78 66.7472 1069.54 65.4744C1070.31 64.2017 1070.85 62.75 1071.15 61.1193L1084.21 61.179C1083.87 63.983 1083.03 66.6875 1081.68 69.2926C1080.34 71.8778 1078.54 74.1946 1076.28 76.2429C1074.03 78.2713 1071.35 79.8821 1068.22 81.0753C1065.12 82.2486 1061.61 82.8352 1057.69 82.8352C1052.24 82.8352 1047.37 81.6023 1043.08 79.1364C1038.8 76.6705 1035.42 73.1009 1032.93 68.4276C1030.47 63.7543 1029.24 58.0966 1029.24 51.4545C1029.24 44.7926 1030.49 39.125 1032.99 34.4517C1035.5 29.7784 1038.9 26.2187 1043.2 23.7727C1047.49 21.3068 1052.32 20.0739 1057.69 20.0739C1061.23 20.0739 1064.51 20.571 1067.54 21.5653C1070.58 22.5597 1073.27 24.0114 1075.62 25.9205C1077.97 27.8097 1079.88 30.1264 1081.35 32.8707C1082.84 35.6151 1083.79 38.7571 1084.21 42.2969ZM1093.47 82V20.9091H1117.58C1122.19 20.9091 1126.13 21.7344 1129.39 23.3849C1132.67 25.0156 1135.17 27.3324 1136.88 30.3352C1138.61 33.3182 1139.47 36.8281 1139.47 40.8651C1139.47 44.9219 1138.6 48.4119 1136.85 51.3352C1135.1 54.2386 1132.56 56.4659 1129.24 58.017C1125.94 59.5682 1121.94 60.3438 1117.25 60.3438H1101.11V49.9631H1115.16C1117.63 49.9631 1119.67 49.625 1121.3 48.9489C1122.94 48.2727 1124.15 47.2585 1124.94 45.9062C1125.76 44.554 1126.17 42.8736 1126.17 40.8651C1126.17 38.8366 1125.76 37.1264 1124.94 35.7344C1124.15 34.3423 1122.93 33.2883 1121.27 32.5724C1119.64 31.8366 1117.59 31.4688 1115.1 31.4688H1106.39V82H1093.47ZM1126.47 54.1989L1141.65 82H1127.39L1112.53 54.1989H1126.47ZM1148.6 82V20.9091H1189.76V31.5582H1161.51V46.1151H1187.65V56.7642H1161.51V71.3509H1189.88V82H1148.6ZM1210.56 82H1196.72L1217.81 20.9091H1234.46L1255.52 82H1241.67L1226.37 34.8693H1225.89L1210.56 82ZM1209.7 57.9872H1242.39V68.0696H1209.7V57.9872ZM1253.08 31.5582V20.9091H1303.25V31.5582H1284.55V82H1271.78V31.5582H1253.08ZM1324.43 20.9091V82H1311.51V20.9091H1324.43ZM1346.09 20.9091L1360.86 67.3239H1361.43L1376.22 20.9091H1390.54L1369.48 82H1352.83L1331.74 20.9091H1346.09ZM1397.89 82V20.9091H1439.06V31.5582H1410.81V46.1151H1436.94V56.7642H1410.81V71.3509H1439.18V82H1397.89Z" fill="white"/>
<rect x="1475.89" y="51" width="48.9791" height="48.9791" transform="rotate(-45 1475.89 51)" stroke="white" stroke-width="1.25588"/>
<rect x="1546.85" y="51" width="48.9791" height="48.9791" transform="rotate(-45 1546.85 51)" stroke="white" stroke-width="1.25588"/>
<rect x="1510.16" y="51" width="50.235" height="50.235" transform="rotate(-45 1510.16 51)" fill="white"/>
</svg>
