<svg width="24" height="25" viewBox="0 0 24 25" fill="none" xmlns="http://www.w3.org/2000/svg">
<path d="M21.07 17.5797L19 15.4597C18.5547 15.0364 17.9931 14.756 17.3872 14.6544C16.7813 14.5529 16.1589 14.6348 15.6 14.8897L14.7 13.9897C15.7605 12.5726 16.2449 10.8064 16.0555 9.04653C15.8662 7.28669 15.0172 5.66392 13.6794 4.5049C12.3417 3.34587 10.6145 2.73665 8.84565 2.79988C7.07678 2.86311 5.39754 3.59409 4.14596 4.84567C2.89438 6.09725 2.1634 7.77649 2.10017 9.54536C2.03695 11.3142 2.64617 13.0414 3.80519 14.3791C4.96421 15.7169 6.58699 16.5659 8.34683 16.7552C10.1067 16.9446 11.8729 16.4603 13.29 15.3997L14.18 16.2897C13.8951 16.8493 13.793 17.4843 13.8881 18.105C13.9831 18.7258 14.2706 19.301 14.71 19.7497L16.83 21.8697C17.3925 22.4315 18.155 22.7471 18.95 22.7471C19.745 22.7471 20.5075 22.4315 21.07 21.8697C21.3557 21.5903 21.5828 21.2566 21.7378 20.8883C21.8928 20.5199 21.9726 20.1243 21.9726 19.7247C21.9726 19.3251 21.8928 18.9295 21.7378 18.5611C21.5828 18.1928 21.3557 17.8591 21.07 17.5797ZM12.59 13.3397C11.8902 14.0377 10.9993 14.5126 10.0297 14.7045C9.06017 14.8964 8.05549 14.7967 7.14259 14.4179C6.2297 14.0391 5.44955 13.3982 4.9007 12.5762C4.35185 11.7543 4.05893 10.7881 4.05893 9.7997C4.05893 8.81133 4.35185 7.84513 4.9007 7.02316C5.44955 6.20119 6.2297 5.56032 7.14259 5.18151C8.05549 4.8027 9.06017 4.70295 10.0297 4.89485C10.9993 5.08675 11.8902 5.5617 12.59 6.2597C13.0556 6.72415 13.4251 7.27591 13.6771 7.88336C13.9292 8.49081 14.0589 9.14202 14.0589 9.7997C14.0589 10.4574 13.9292 11.1086 13.6771 11.716C13.4251 12.3235 13.0556 12.8752 12.59 13.3397ZM19.66 20.4097C19.567 20.5034 19.4564 20.5778 19.3346 20.6286C19.2127 20.6794 19.082 20.7055 18.95 20.7055C18.818 20.7055 18.6873 20.6794 18.5654 20.6286C18.4436 20.5778 18.333 20.5034 18.24 20.4097L16.12 18.2897C16.0263 18.1967 15.9519 18.0861 15.9011 17.9643C15.8503 17.8424 15.8242 17.7117 15.8242 17.5797C15.8242 17.4477 15.8503 17.317 15.9011 17.1951C15.9519 17.0733 16.0263 16.9627 16.12 16.8697C16.213 16.776 16.3236 16.7016 16.4454 16.6508C16.5673 16.6 16.698 16.5739 16.83 16.5739C16.962 16.5739 17.0927 16.6 17.2146 16.6508C17.3364 16.7016 17.447 16.776 17.54 16.8697L19.66 18.9897C19.7537 19.0827 19.8281 19.1933 19.8789 19.3151C19.9296 19.437 19.9558 19.5677 19.9558 19.6997C19.9558 19.8317 19.9296 19.9624 19.8789 20.0843C19.8281 20.2061 19.7537 20.3167 19.66 20.4097Z" fill="#0D141C"/>
</svg>
