<svg width="161" height="40" viewBox="0 0 161 40" fill="none" xmlns="http://www.w3.org/2000/svg">
<g clip-path="url(#clip0_1_213)">
<path d="M51.3611 31.6515L53.3137 27.0875C55.4517 28.6708 58.2404 29.5088 61.0297 29.5088C63.0751 29.5088 64.3764 28.7175 64.3764 27.5068C64.3297 24.1535 52.0584 26.7615 51.9651 18.3308C51.9184 14.0462 55.7304 10.7395 61.1231 10.7395C64.3297 10.7395 67.5377 11.5315 69.8151 13.3482L67.9904 18.0095C65.8951 16.6622 63.3071 15.7228 60.8437 15.7228C59.1704 15.7228 58.0544 16.5142 58.0544 17.5395C58.1011 20.8462 70.4664 19.0295 70.6057 27.0875C70.6057 31.4655 66.8864 34.5395 61.5871 34.5395C57.6831 34.5395 54.1044 33.6082 51.3611 31.6515ZM129.113 25.4348C128.62 26.3106 127.903 27.0395 127.036 27.5468C126.168 28.054 125.181 28.3214 124.176 28.3215C121.044 28.3215 118.506 25.7775 118.506 22.6395C118.506 19.5015 121.044 16.9575 124.176 16.9575C125.181 16.9576 126.168 17.225 127.036 17.7322C127.903 18.2395 128.62 18.9684 129.113 19.8442L134.542 16.8308C132.508 13.1968 128.63 10.7395 124.176 10.7395C117.617 10.7395 112.3 16.0668 112.3 22.6395C112.3 29.2115 117.617 34.5395 124.176 34.5395C128.63 34.5395 132.508 32.0822 134.542 28.4482L129.113 25.4348ZM74.1284 34.0735H80.9151V0.833496H74.1291L74.1284 34.0735ZM137.969 0.833496V34.0735H144.756V24.1148L152.798 34.0735H161.472L151.246 22.2428L160.728 11.2035H152.426L144.756 20.3815V0.833496H137.969ZM101.824 11.2048V13.9068C100.708 12.0435 97.9657 10.7395 95.0837 10.7395C89.1337 10.7395 84.4391 16.0028 84.4391 22.6162C84.4391 29.2295 89.1337 34.5395 95.0837 34.5395C97.9657 34.5395 100.708 33.2355 101.824 31.3722V34.0735H108.61V11.2048H101.824ZM101.824 25.4808C100.848 27.1108 98.8024 28.3208 96.5251 28.3208C93.3924 28.3208 90.8537 25.7775 90.8537 22.6395C90.8537 19.5015 93.3924 16.9575 96.5251 16.9575C98.8024 16.9575 100.848 18.2148 101.824 19.8908V25.4808Z" fill="black"/>
<path d="M15.5204 0.0986328C13.3211 0.0986328 11.5384 1.8853 11.5384 4.08863C11.5379 4.61208 11.6405 5.13051 11.8403 5.61431C12.0401 6.09812 12.3333 6.53783 12.703 6.90833C13.0728 7.27884 13.5119 7.57289 13.9953 7.77369C14.4787 7.97449 14.997 8.07811 15.5204 8.07863H19.5031V4.08863C19.504 3.03142 19.0849 2.01714 18.338 1.26889C17.5911 0.520642 16.5776 0.0996932 15.5204 0.0986328ZM15.5204 10.7386H4.90107C2.70173 10.7386 0.919067 12.5253 0.919067 14.7293C0.919067 16.9326 2.70173 18.7193 4.90107 18.7193H15.5211C17.7197 18.7193 19.5031 16.9326 19.5031 14.7293C19.5031 12.5253 17.7197 10.7386 15.5204 10.7386Z" fill="#36C5F0"/>
<path d="M40.7417 14.7293C40.7417 12.5253 38.9584 10.7386 36.7591 10.7386C34.5597 10.7386 32.7771 12.5253 32.7771 14.7293V18.7193H36.7591C37.8163 18.7182 38.8298 18.2973 39.5767 17.549C40.3235 16.8008 40.7426 15.7865 40.7417 14.7293ZM30.1224 14.7293V4.08863C30.1233 3.03142 29.7042 2.01714 28.9573 1.26889C28.2105 0.520642 27.1969 0.0996932 26.1397 0.0986328C23.9404 0.0986328 22.1577 1.8853 22.1577 4.08863V14.7286C22.1577 16.9333 23.9404 18.72 26.1397 18.72C27.1969 18.7189 28.2105 18.298 28.9573 17.5497C29.7042 16.8015 30.1233 15.7865 30.1224 14.7293Z" fill="#2EB67D"/>
<path d="M26.1397 40.0001C27.1969 39.999 28.2105 39.5781 28.9573 38.8298C29.7042 38.0816 30.1233 37.0673 30.1224 36.0101C30.1233 34.9528 29.7042 33.9386 28.9573 33.1903C28.2105 32.4421 27.1969 32.0211 26.1397 32.0201H22.1577V36.0101C22.1577 38.2134 23.9404 40.0001 26.1397 40.0001ZM26.1397 29.3601H36.7597C38.9584 29.3601 40.7417 27.5734 40.7417 25.3694C40.7426 24.3122 40.3235 23.2979 39.5767 22.5497C38.8298 21.8014 37.8163 21.3805 36.7591 21.3794H26.1397C23.9404 21.3794 22.1577 23.1661 22.1577 25.3694C22.1572 25.8928 22.2598 26.4113 22.4596 26.8951C22.6595 27.3789 22.9526 27.8186 23.3224 28.1891C23.6921 28.5596 24.1313 28.8536 24.6147 29.0544C25.0981 29.2552 25.6163 29.3595 26.1397 29.3601Z" fill="#ECB22E"/>
<path d="M0.919067 25.3694C0.918542 25.8928 1.02112 26.4113 1.22095 26.8951C1.42078 27.3789 1.71395 27.8186 2.08371 28.1891C2.45347 28.5596 2.89259 28.8536 3.376 29.0544C3.8594 29.2552 4.37762 29.3589 4.90107 29.3594C5.95828 29.3583 6.97178 28.9374 7.71866 28.1891C8.46554 27.4409 8.88462 26.4266 8.88373 25.3694V21.3794H4.90107C2.70173 21.3794 0.919067 23.1661 0.919067 25.3694ZM11.5384 25.3694V36.0094C11.5384 38.2134 13.3211 40.0001 15.5204 40.0001C16.5776 39.999 17.5911 39.5781 18.338 38.8298C19.0849 38.0816 19.504 37.0673 19.5031 36.0101V25.3694C19.5036 24.8459 19.401 24.3274 19.2011 23.8436C19.0012 23.3597 18.708 22.92 18.3382 22.5495C17.9684 22.1789 17.5292 21.8849 17.0457 21.6842C16.5622 21.4834 16.0439 21.3798 15.5204 21.3794C13.3211 21.3794 11.5384 23.1661 11.5384 25.3694Z" fill="#E01E5A"/>
</g>
<defs>
<clipPath id="clip0_1_213">
<rect width="160" height="40" fill="white" transform="translate(0.919067)"/>
</clipPath>
</defs>
</svg>
