<svg width="134" height="40" viewBox="0 0 134 40" fill="none" xmlns="http://www.w3.org/2000/svg">
<g clip-path="url(#clip0_1_211)">
<path d="M20.5531 0C9.50771 0 0.553223 8.95424 0.553223 19.9996C0.553223 31.0462 9.50771 40 20.5531 40C31.599 40 40.553 31.0462 40.553 19.9996C40.553 8.95495 31.5994 0.000954567 20.5529 0.000954567L20.5531 0ZM29.7249 28.8452C29.3657 29.4344 28.5981 29.619 28.0109 29.26C23.3144 26.3896 17.403 25.7412 10.4413 27.3315C9.7704 27.4854 9.10169 27.0648 8.94886 26.3941C8.79529 25.7233 9.21394 25.0546 9.88647 24.9018C17.505 23.16 24.0399 23.9097 29.3115 27.1309C29.899 27.4916 30.0853 28.2582 29.7247 28.8457L29.7249 28.8452ZM32.1729 23.4003C31.7205 24.1342 30.7609 24.3644 30.028 23.9137C24.6532 20.6098 16.4575 19.6529 10.0988 21.5831C9.27412 21.8321 8.40314 21.3674 8.15285 20.5442C7.90447 19.7195 8.36947 18.8502 9.19269 18.5994C16.4561 16.3955 25.4855 17.4631 31.6591 21.2568C32.3923 21.7082 32.624 22.6683 32.1726 23.4005L32.1729 23.4003ZM32.383 17.7296C25.9362 13.901 15.3023 13.549 9.14801 15.4168C8.15977 15.7165 7.11467 15.1587 6.81518 14.1704C6.5157 13.1817 7.07311 12.1373 8.06208 11.8368C15.1268 9.69221 26.871 10.1066 34.2922 14.5122C35.1811 15.0397 35.4727 16.1877 34.9458 17.0755C34.4204 17.9644 33.2693 18.2574 32.3833 17.7296H32.383ZM54.9663 18.4633C51.5131 17.6398 50.8984 17.0619 50.8984 15.8474C50.8984 14.7001 51.9786 13.928 53.5849 13.928C55.142 13.928 56.686 14.5143 58.3048 15.7213C58.3538 15.7579 58.4151 15.7724 58.4756 15.7629C58.536 15.7538 58.5895 15.7206 58.6248 15.6707L60.3109 13.2939C60.3802 13.196 60.3613 13.0611 60.2679 12.9863C58.3413 11.4404 56.1719 10.6888 53.636 10.6888C49.9075 10.6888 47.3031 12.9264 47.3031 16.1278C47.3031 19.5609 49.5497 20.7765 53.4321 21.7149C56.7365 22.476 57.2941 23.1137 57.2941 24.2536C57.2941 25.5167 56.1664 26.302 54.3516 26.302C52.3359 26.302 50.6918 25.623 48.8526 24.0303C48.807 23.9909 48.7444 23.973 48.6866 23.9763C48.6257 23.9813 48.5701 24.0095 48.5314 24.0561L46.6409 26.306C46.5616 26.3994 46.5716 26.5389 46.6633 26.6196C48.8032 28.53 51.435 29.539 54.2751 29.539C58.2929 29.539 60.8891 27.3437 60.8891 23.946C60.8963 21.0777 59.1792 19.4895 54.9735 18.4664L54.9663 18.4633ZM69.9788 15.0576C68.2373 15.0576 66.8089 15.7435 65.631 17.149V15.567C65.631 15.4421 65.5297 15.3404 65.4051 15.3404H62.313C62.1881 15.3404 62.0871 15.4421 62.0871 15.567V33.145C62.0871 33.2699 62.1881 33.3716 62.313 33.3716H65.4051C65.5297 33.3716 65.631 33.2699 65.631 33.145V27.5964C66.8091 28.9185 68.2378 29.5646 69.9788 29.5646C73.2146 29.5646 76.4903 27.0736 76.4903 22.3119C76.4951 17.5491 73.2184 15.0574 69.9824 15.0574L69.9788 15.0576ZM72.8948 22.3119C72.8948 24.7367 71.4012 26.4288 69.2625 26.4288C67.1482 26.4288 65.5534 24.6598 65.5534 22.3119C65.5534 19.9643 67.1482 18.1951 69.2625 18.1951C71.3666 18.1948 72.8951 19.9258 72.8951 22.3117L72.8948 22.3119ZM84.8862 15.0576C80.719 15.0576 77.4542 18.2665 77.4542 22.3638C77.4542 26.4164 80.6965 29.5915 84.8351 29.5915C89.0172 29.5915 92.2919 26.3934 92.2919 22.3119C92.2919 18.2445 89.0391 15.0581 84.886 15.0581L84.8862 15.0576ZM84.8862 26.4529C82.6697 26.4529 80.9986 24.672 80.9986 22.3107C80.9986 19.9394 82.6119 18.2187 84.8351 18.2187C87.066 18.2187 88.7482 19.9996 88.7482 22.3626C88.7482 24.7334 87.1242 26.4529 84.8864 26.4529H84.8862ZM101.191 15.3404H97.7882V11.8617C97.7882 11.737 97.6874 11.6353 97.5625 11.6353H94.4709C94.3458 11.6353 94.2443 11.737 94.2443 11.8617V15.3404H92.7576C92.6332 15.3404 92.5324 15.4421 92.5324 15.5671V18.2245C92.5324 18.3491 92.6332 18.4511 92.7576 18.4511H94.2443V25.3271C94.2443 28.1058 95.6273 29.5146 98.3549 29.5146C99.4641 29.5146 100.384 29.2856 101.251 28.7939C101.322 28.7545 101.366 28.6785 101.366 28.5978V26.0672C101.366 25.9891 101.325 25.9153 101.258 25.8745C101.191 25.8322 101.107 25.8301 101.038 25.8642C100.442 26.1639 99.8665 26.3022 99.2228 26.3022C98.2308 26.3022 97.7882 25.8518 97.7882 24.8423V18.4523H101.191C101.316 18.4523 101.416 18.3506 101.416 18.2257V15.5685C101.421 15.4436 101.321 15.3419 101.194 15.3419L101.191 15.3404ZM113.046 15.354V14.9268C113.046 13.6698 113.528 13.1093 114.609 13.1093C115.253 13.1093 115.771 13.2373 116.351 13.4308C116.423 13.4532 116.497 13.442 116.555 13.3992C116.615 13.3565 116.648 13.2879 116.648 13.2153V10.6098C116.648 10.5102 116.584 10.422 116.488 10.3927C115.876 10.2104 115.092 10.0234 113.918 10.0234C111.063 10.0234 109.553 11.6317 109.553 14.6726V15.327H108.067C107.943 15.327 107.841 15.4288 107.841 15.5534V18.2244C107.841 18.3491 107.943 18.4511 108.067 18.4511H109.553V29.057C109.553 29.1819 109.654 29.2837 109.778 29.2837H112.87C112.995 29.2837 113.097 29.1819 113.097 29.057V18.4518H115.984L120.406 29.0551C119.904 30.1693 119.411 30.3909 118.737 30.3909C118.192 30.3909 117.618 30.2282 117.032 29.9073C116.977 29.8769 116.911 29.8719 116.852 29.8903C116.793 29.9111 116.743 29.955 116.718 30.0123L115.67 32.3115C115.62 32.4202 115.663 32.5477 115.767 32.6041C116.861 33.1966 117.849 33.4495 119.07 33.4495C121.353 33.4495 122.615 32.386 123.727 29.5249L129.091 15.6635C129.118 15.5938 129.11 15.515 129.068 15.4531C129.025 15.3917 128.957 15.3547 128.882 15.3547H125.663C125.566 15.3547 125.48 15.4161 125.448 15.5066L122.151 24.9254L118.539 15.5004C118.506 15.4128 118.422 15.3547 118.328 15.3547H113.045L113.046 15.354ZM106.173 15.3404H103.081C102.956 15.3404 102.854 15.4421 102.854 15.5671V29.057C102.854 29.1819 102.956 29.2837 103.081 29.2837H106.173C106.297 29.2837 106.399 29.1819 106.399 29.057V15.568C106.399 15.5382 106.394 15.5087 106.382 15.4811C106.371 15.4536 106.354 15.4286 106.333 15.4075C106.312 15.3864 106.287 15.3698 106.259 15.3584C106.232 15.3471 106.202 15.3413 106.172 15.3414L106.173 15.3404ZM104.644 9.19809C103.419 9.19809 102.425 10.1897 102.425 11.4146C102.425 12.6403 103.419 13.6331 104.644 13.6331C105.869 13.6331 106.862 12.6403 106.862 11.4146C106.862 10.1899 105.868 9.19809 104.645 9.19809H104.644ZM131.732 19.6777C130.508 19.6777 129.556 18.6949 129.556 17.5015C129.556 16.3081 130.52 15.3141 131.743 15.3141C132.967 15.3141 133.919 16.2967 133.919 17.4891C133.919 18.6825 132.954 19.6777 131.731 19.6777H131.732ZM131.744 15.5305C130.629 15.5305 129.786 16.4165 129.786 17.5015C129.786 18.586 130.623 19.4601 131.732 19.4601C132.847 19.4601 133.691 18.5748 133.691 17.4891C133.691 16.4046 132.853 15.5305 131.745 15.5305H131.744ZM132.226 17.7129L132.841 18.5746H132.323L131.768 17.7841H131.292V18.5746H130.858V16.2904H131.876C132.407 16.2904 132.756 16.562 132.756 17.0191C132.758 17.3936 132.541 17.6224 132.228 17.7129L132.226 17.7129ZM131.858 16.6824H131.292V17.4048H131.858C132.141 17.4048 132.31 17.2665 132.31 17.0432C132.31 16.8082 132.14 16.6824 131.858 16.6824L131.858 16.6824Z" fill="#2EBD59"/>
</g>
<defs>
<clipPath id="clip0_1_211">
<rect width="133.366" height="40" fill="white" transform="translate(0.553223)"/>
</clipPath>
</defs>
</svg>
