<svg width="390" height="582" viewBox="0 0 390 582" fill="none" xmlns="http://www.w3.org/2000/svg">
<path fill-rule="evenodd" clip-rule="evenodd" d="M50.5962 262.691C19.1613 296.598 0 341.654 0 391.101C0 496.531 87.1119 581.998 194.57 581.998C302.028 581.998 389.14 496.531 389.14 391.101C389.14 342.046 370.281 297.312 339.289 263.499V390.932C339.289 470.652 274.663 535.278 194.942 535.278C115.222 535.278 50.5962 470.652 50.5962 390.932V262.691Z" fill="#E1F0DA"/>
<path fill-rule="evenodd" clip-rule="evenodd" d="M50.5962 319.308C19.1613 285.401 0 240.345 0 190.898C0 85.4679 87.1119 3.05176e-05 194.57 3.05176e-05C302.028 3.05176e-05 389.14 85.4679 389.14 190.898C389.14 239.953 370.281 284.686 339.289 318.499V191.067C339.289 111.346 274.663 46.7206 194.942 46.7206C115.222 46.7206 50.5962 111.347 50.5962 191.067V319.308Z" fill="#E1F0DA"/>
<rect x="26.5141" y="37.1196" width="336.928" height="501.721" rx="168.464" fill="url(#paint0_linear_64_86)" stroke="white" stroke-width="20.3952"/>
<defs>
<linearGradient id="paint0_linear_64_86" x1="353.245" y1="287.98" x2="36.7117" y2="287.98" gradientUnits="userSpaceOnUse">
<stop stop-color="#38EF7D"/>
<stop offset="1" stop-color="#11998E"/>
</linearGradient>
</defs>
</svg>
