<svg width="170" height="40" viewBox="0 0 170 40" fill="none" xmlns="http://www.w3.org/2000/svg">
<g clip-path="url(#clip0_1_224)">
<path d="M148.832 13.4656C149.769 13.4656 150.54 12.9783 150.645 12.3487L151.57 1.88355C151.57 0.849167 150.358 0 148.835 0C147.313 0 146.102 0.849163 146.102 1.88373L147.027 12.3487C147.129 12.9781 147.9 13.4656 148.835 13.4656H148.832ZM143.176 16.7344C143.646 15.9237 143.61 15.0126 143.115 14.6078L134.513 8.5738C133.619 8.05587 132.278 8.67929 131.517 9.99916C130.753 11.3173 130.888 12.7896 131.78 13.3077L141.305 17.7425C141.9 17.9632 142.712 17.5384 143.179 16.7282L143.176 16.7344ZM154.493 16.7288C154.962 17.5389 155.77 17.9639 156.366 17.743L165.891 13.3083C166.788 12.7903 166.916 11.3179 166.159 9.99972C165.394 8.68116 164.051 8.05643 163.159 8.57436L154.557 14.6083C154.065 15.0126 154.028 15.9245 154.496 16.735L154.493 16.7288ZM148.832 26.5383C149.769 26.5383 150.54 27.0215 150.645 27.6516L151.57 38.1153C151.57 39.1529 150.358 40.0002 148.835 40.0002C147.313 40.0002 146.102 39.1529 146.102 38.1153L147.027 27.6516C147.129 27.0215 147.9 26.5383 148.835 26.5383H148.832ZM154.493 23.2688C154.962 22.4564 155.77 22.0352 156.366 22.2585L165.891 26.6903C166.788 27.2088 166.916 28.6825 166.159 30.0018C165.394 31.316 164.051 31.9425 163.159 31.4253L154.557 25.3969C154.065 24.9895 154.028 24.077 154.496 23.2671H154.492M143.176 23.2676C143.646 24.077 143.61 24.9895 143.115 25.3976L134.513 31.4258C133.619 31.943 132.278 31.3166 131.517 30.0023C130.753 28.683 130.888 27.2093 131.78 26.6908L141.305 22.259C141.9 22.0357 142.712 22.4569 143.179 23.2695H143.176" fill="#FDBB30"/>
<path d="M94.5737 25.3777C94.5737 25.6988 94.5451 26.03 94.4571 26.3209C94.0923 27.5291 92.8413 28.5508 91.2763 28.5508C89.9714 28.5508 88.935 27.8096 88.935 26.244C88.935 23.8479 91.5723 23.1862 94.5744 23.2029L94.5737 25.3775V25.3777ZM99.2825 21.202C99.2825 17.251 97.5943 13.7745 91.8899 13.7745C88.9617 13.7745 86.6377 14.5969 85.3691 15.33L86.2982 18.5063C87.4575 17.7744 89.3052 17.1685 91.0538 17.1685C93.9472 17.1605 94.4211 18.8071 94.4211 19.8609V20.1103C88.1138 20.101 84.1268 22.285 84.1268 26.7339C84.1268 29.4525 86.1574 31.9987 89.6874 31.9987C91.8564 31.9987 93.6731 31.1329 94.7604 29.7447H94.8677C94.8677 29.7447 95.5871 32.7586 99.5587 31.6054C99.3514 30.352 99.2833 29.0141 99.2833 27.4052L99.2827 21.202M1.0083 8.39381C1.0083 8.39381 5.12996 25.2826 5.78812 28.0236C6.55588 31.2229 7.9396 32.4006 11.9272 31.6054L14.5007 21.135C15.1532 18.533 15.5899 16.6778 16.0104 14.0336H16.0836C16.3788 16.7058 16.7976 18.541 17.3346 21.1436C17.3346 21.1436 18.3816 25.8973 18.9188 28.3933C19.4565 30.8885 20.9532 32.4621 24.8596 31.6054L30.992 8.39307H26.0422L23.9477 18.4294C23.3846 21.3496 22.8741 23.634 22.4802 26.3049H22.4101C22.0522 23.6575 21.5964 21.4662 21.0245 18.6204L18.8456 8.39307H13.6875L11.3555 18.3625C10.6955 21.3929 10.0765 23.8388 9.68442 26.4208H9.6131C9.21055 23.9895 8.67469 20.9141 8.09476 17.9822C8.09476 17.9822 6.71029 10.8511 6.22335 8.39307L1.0083 8.39381ZM40.3548 25.3777C40.3548 25.6988 40.3262 26.03 40.237 26.3209C39.8729 27.5291 38.6212 28.5508 37.0562 28.5508C35.7511 28.5508 34.7161 27.8096 34.7161 26.244C34.7161 23.8479 37.3527 23.1862 40.3554 23.2029L40.3548 25.3775V25.3777ZM45.0631 21.202C45.0631 17.251 43.3749 13.7745 37.6716 13.7745C34.7426 13.7745 32.4168 14.5969 31.149 15.33L32.0769 18.5063C33.2361 17.7744 35.0838 17.1685 36.8329 17.1685C39.7284 17.1605 40.2023 18.8071 40.2023 19.8609V20.1103C33.8923 20.101 29.9072 22.285 29.9072 26.7339C29.9072 29.4525 31.9367 31.9987 35.4641 31.9987C37.6361 31.9987 39.4517 31.1329 40.5402 29.7447H40.6463C40.6463 29.7447 41.3677 32.7586 45.3383 31.6054C45.1307 30.352 45.0631 29.0141 45.0631 27.4052V21.202ZM52.9211 26.6781V8.39381H48.2066V31.6062H52.9211V26.6781ZM114.595 8.39381V25.5171C114.595 27.879 115.04 29.532 115.99 30.5436C116.822 31.4281 118.189 32.0005 119.828 32.0005C121.222 32.0005 122.593 31.7345 123.24 31.4945L123.179 27.8115C122.698 27.9291 122.145 28.0243 121.389 28.0243C119.782 28.0243 119.245 26.9952 119.245 24.8758V18.3241H123.35V13.8822H119.245V8.39381H114.595ZM102.426 14.1682V31.6062H107.289V22.6776C107.289 22.195 107.319 21.7745 107.395 21.3899C107.755 19.5187 109.185 18.3241 111.239 18.3241C111.802 18.3241 112.206 18.3853 112.642 18.4473V13.8822C112.276 13.8092 112.027 13.775 111.571 13.775C109.756 13.775 107.691 14.9461 106.825 17.4581H106.693V14.1682H102.426ZM56.2221 14.1682V31.6062H60.9603V21.3805C60.9603 20.9007 61.0167 20.3932 61.1829 19.9533C61.5755 18.9238 62.5337 17.718 64.0627 17.718C65.9756 17.718 66.8688 19.3344 66.8688 21.6671V31.6049H71.6033V21.2547C71.6033 20.7969 71.6658 20.245 71.8012 19.8413C72.1899 18.6695 73.2221 17.7167 74.6437 17.7167C76.5819 17.7167 77.5123 19.3047 77.5123 22.0505V31.6043H82.2499V21.3333C82.2499 15.9174 79.4997 13.7734 76.3947 13.7734C75.0208 13.7734 73.9353 14.1175 72.9536 14.719C72.1292 15.2269 71.3898 15.9465 70.7448 16.8924H70.6747C69.926 15.0131 68.1644 13.7743 65.8688 13.7743C62.9197 13.7743 61.5942 15.2693 60.7902 16.5371H60.7196V14.1677H56.2221" fill="#1A75CF"/>
<path d="M168.28 30.7585H168.351C168.446 30.7585 168.507 30.7193 168.507 30.6611C168.507 30.5948 168.45 30.5588 168.362 30.5588C168.331 30.5588 168.3 30.5649 168.28 30.5649V30.7602V30.7584L168.28 30.7585ZM168.269 31.2287H168.017V30.4081C168.074 30.3969 168.207 30.3769 168.378 30.3769C168.563 30.3769 168.646 30.403 168.707 30.4441C168.759 30.48 168.796 30.5412 168.796 30.6239C168.796 30.7081 168.718 30.7795 168.604 30.8106V30.8211C168.697 30.8459 168.748 30.9135 168.775 31.0321C168.8 31.1505 168.816 31.1988 168.832 31.2292H168.546C168.522 31.1988 168.507 31.1262 168.49 31.0537C168.474 30.9707 168.435 30.929 168.351 30.929H168.268L168.269 31.2287ZM168.373 30.1407C168.011 30.1407 167.738 30.4354 167.738 30.811C167.738 31.177 168.012 31.4755 168.383 31.4755C168.755 31.4817 169.029 31.1772 169.029 30.805C169.029 30.4346 168.755 30.1407 168.378 30.1407H168.373ZM168.389 29.918C168.893 29.918 169.295 30.3149 169.295 30.8048C169.295 31.3006 168.893 31.6981 168.382 31.6981C167.871 31.6981 167.464 31.3 167.464 30.805C167.464 30.3149 167.872 29.9182 168.382 29.9182H168.388" fill="#FDBB30"/>
</g>
<defs>
<clipPath id="clip0_1_224">
<rect width="168.35" height="40" fill="white" transform="translate(0.97644)"/>
</clipPath>
</defs>
</svg>
